<svg width="1130" height="901" viewBox="0 0 1130 901" fill="none" xmlns="http://www.w3.org/2000/svg">
<path fill-rule="evenodd" clip-rule="evenodd" d="M1102.35 547.428H572.029L890.847 0.0078125H1071.69L839.941 389.837H1102.35V458.96H740.603V475.549H1102.35V547.428ZM453.172 1.38764L861.365 1.38822L820.308 71.8857H491.775V88.4742H810.646L772.805 153.45L464.503 153.449C451.073 153.449 438.504 160.064 430.9 171.135C422.771 182.969 431.244 199.068 445.601 199.068H495.482C604.92 199.068 662.685 328.657 615.096 424.24L604.838 441.853C604.788 441.928 604.738 442.002 604.688 442.076C604.569 442.252 604.449 442.428 604.33 442.603L576.982 482.692C549.942 522.331 505.059 546.045 457.075 546.045H66.001L108.944 475.54H406.068V458.952H119.048L158.62 393.983H437.773C447.56 393.983 456.708 389.126 462.19 381.019C470.792 368.296 461.677 351.129 446.319 351.129H412.623C296.692 351.129 229.121 217.04 286.321 114.406L298.24 94.0084C342.476 17.9775 404.641 1.38764 453.172 1.38764Z" fill="#0980D0"/>
<path d="M50.0884 838.72C36.4147 838.72 25.3798 835.962 16.9836 830.444C8.70742 824.807 3.07001 817.01 0.0713855 807.055L31.1971 791.042C35.0353 800.638 42.352 805.436 53.147 805.436C61.6631 805.436 66.3409 803.217 67.1805 798.779C67.4204 797.339 67.1805 796.08 66.4609 795.001C65.7412 793.921 64.4818 792.962 62.6826 792.122C60.8834 791.282 59.2042 790.563 57.6449 789.963C56.0856 789.363 53.8667 788.643 50.988 787.804C48.2293 786.964 46.0702 786.305 44.511 785.825C22.2012 778.028 12.7855 764.235 16.2639 744.444C18.303 733.169 23.8205 724.113 32.8163 717.276C41.8122 710.439 52.7872 707.021 65.7412 707.021C76.5362 707.021 85.772 709.54 93.4485 714.578C101.125 719.615 106.942 726.872 110.9 736.348L80.4944 752.54C77.3759 744.384 71.6785 740.306 63.4023 740.306C57.1651 740.306 53.5668 742.465 52.6072 746.783C52.1275 749.422 53.207 751.581 55.8458 753.26C58.4845 754.939 63.8821 757.158 72.0383 759.917C77.1959 761.596 81.454 763.335 84.8124 765.134C88.2908 766.814 91.7692 769.212 95.2476 772.331C98.846 775.45 101.245 779.468 102.444 784.385C103.764 789.303 103.884 795.061 102.804 801.658C100.645 813.892 94.9478 823.128 85.712 829.365C76.5962 835.602 64.7217 838.72 50.0884 838.72ZM194.551 709.9C206.785 709.9 216.741 714.218 224.417 722.854C232.213 731.37 235.092 742.705 233.053 756.858C231.134 770.052 225.437 780.607 215.961 788.524C206.605 796.32 194.491 800.218 179.618 800.218H165.224L158.927 835.842H122.944L145.074 709.9H194.551ZM197.429 755.059C198.029 751.7 197.369 749.182 195.45 747.502C193.531 745.703 191.192 744.804 188.434 744.804H174.94L171.341 765.314H185.735C188.494 765.314 191.012 764.415 193.291 762.615C195.57 760.696 196.95 758.177 197.429 755.059ZM311.406 838.72C297.732 838.72 286.037 835.362 276.322 828.645C266.606 821.808 259.829 813.292 255.991 803.097C252.273 792.782 251.313 781.987 253.112 770.712C255.991 753.32 264.207 738.387 277.761 725.912C291.435 713.318 308.227 707.021 328.138 707.021C338.453 707.021 347.689 709 355.845 712.958C364.001 716.797 370.419 721.894 375.096 728.251C379.774 734.608 383.073 741.805 384.992 749.841C386.911 757.758 387.211 765.914 385.891 774.31C383.133 791.822 375.036 806.935 361.603 819.649C348.289 832.363 331.556 838.72 311.406 838.72ZM293.594 794.821C298.392 800.578 305.228 803.457 314.104 803.457C322.98 803.457 330.837 800.578 337.674 794.821C344.51 788.943 348.709 781.627 350.268 772.871C351.827 764.115 350.208 756.858 345.41 751.101C340.612 745.223 333.775 742.285 324.899 742.285C316.024 742.285 308.167 745.223 301.33 751.101C294.493 756.858 290.295 764.115 288.736 772.871C287.177 781.627 288.796 788.943 293.594 794.821ZM515.43 755.779C512.792 771.132 504.396 782.406 490.242 789.603L506.435 835.662H470.451L457.497 796.08H445.982L438.966 835.662H402.982L425.292 709.72H475.669C488.743 709.72 499.238 714.098 507.154 722.854C515.071 731.49 517.829 742.465 515.43 755.779ZM455.338 742.825L451.2 766.214H465.953C469.432 766.334 472.37 765.374 474.769 763.335C477.288 761.296 478.847 758.417 479.447 754.699C480.047 750.981 479.447 748.102 477.648 746.063C475.969 743.904 473.33 742.825 469.731 742.825H455.338ZM637.478 709.9L631.36 744.804H601.674L585.661 835.842H549.678L565.691 744.804H536.004L542.121 709.9H637.478ZM682.602 800.938H723.983L717.866 835.842H640.501L662.631 709.9H698.614L682.602 800.938ZM857.732 709.9L804.296 781.327L794.761 835.842H758.777L768.313 781.507L740.066 709.9H777.848L790.083 748.042L815.631 709.9H857.732ZM859.044 835.842L881.174 709.9H909.961L938.928 770.352L949.543 709.9H985.526L963.396 835.842H934.61L905.643 775.39L895.028 835.842H859.044ZM1059.42 838.72C1039.87 838.72 1024.69 832.303 1013.9 819.469C1003.22 806.635 999.444 790.503 1002.56 771.072C1005.56 752.36 1014.02 737.007 1027.93 725.013C1041.96 713.018 1058.22 707.021 1076.69 707.021C1101.4 707.021 1119.09 717.336 1129.76 737.967L1096.84 755.419C1091.92 746.663 1084.12 742.285 1073.45 742.285C1064.81 742.285 1057.2 745.163 1050.6 750.921C1044 756.678 1039.93 763.995 1038.37 772.871C1036.93 781.387 1038.37 788.643 1042.68 794.641C1047 800.518 1053.48 803.457 1062.11 803.457C1072.07 803.457 1080.65 798.779 1087.84 789.423L1117.71 808.314C1111.23 817.91 1102.9 825.407 1092.7 830.804C1082.63 836.082 1071.53 838.72 1059.42 838.72Z" fill="black"/>
</svg>
