<?xml version="1.0" encoding="UTF-8"?>
<svg xmlns="http://www.w3.org/2000/svg" xmlns:xlink="http://www.w3.org/1999/xlink" width="1250px" height="194px" viewBox="0 0 1253 194" version="1.1">
<g id="surface1">
<path style=" stroke:none;fill-rule:nonzero;fill:rgb(100%,100%,100%);fill-opacity:1;" d="M 145.449219 123.8125 L 187.277344 81.9375 L 186.710938 55.863281 L 170.6875 40.355469 L 170.953125 57.308594 L 151.949219 76.445312 L 108.941406 33.4375 L 82.890625 33.996094 L 67.382812 50.027344 L 84.332031 49.761719 L 104.601562 69.917969 L 61.613281 112.917969 L 62.183594 138.976562 L 78.203125 154.496094 L 77.949219 137.519531 L 98.078125 117.246094 L 139.9375 159.105469 L 166 158.539062 L 181.5 142.515625 L 164.535156 142.769531 Z M 174.078125 61.246094 C 175.285156 60.019531 175.945312 58.382812 175.90625 56.660156 L 175.90625 52.324219 L 181.78125 58.011719 L 182.257812 79.902344 L 141.734375 120.5625 L 128.53125 107.191406 Z M 88.28125 46.664062 C 87.089844 45.484375 85.457031 44.804688 83.785156 44.804688 L 83.695312 44.796875 L 79.269531 44.917969 L 85.046875 38.941406 L 106.933594 38.46875 L 147.679688 79.226562 L 134.308594 92.433594 Z M 74.839844 133.597656 C 73.628906 134.808594 72.945312 136.488281 72.972656 138.195312 L 73.039062 142.578125 L 67.117188 136.824219 L 66.644531 114.9375 L 108.464844 72.890625 L 121.667969 86.257812 Z M 169.585938 147.71875 L 163.828125 153.617188 L 141.972656 154.097656 L 100.621094 113.816406 L 114.003906 100.625 L 160.605469 145.898438 C 161.800781 147.082031 163.433594 147.753906 165.101562 147.753906 Z M 169.585938 147.71875 "/>
<path style=" stroke:none;fill-rule:nonzero;fill:rgb(100%,100%,100%);fill-opacity:1;" d="M 152.808594 123.6875 L 165.042969 136.324219 L 183.871094 136.066406 L 183.871094 117.085938 L 171.230469 105.398438 Z M 152.808594 123.6875 "/>
<path style=" stroke:none;fill-rule:nonzero;fill:rgb(100%,100%,100%);fill-opacity:1;" d="M 96.71875 69.78125 L 84.492188 57.136719 L 65.664062 57.410156 L 65.664062 76.382812 L 78.300781 88.058594 Z M 96.71875 69.78125 "/>
<path style=" stroke:none;fill-rule:nonzero;fill:rgb(100%,100%,100%);fill-opacity:1;" d="M 163.535156 55.714844 L 163.261719 36.886719 L 144.292969 36.886719 L 132.609375 49.527344 L 150.898438 67.941406 Z M 163.535156 55.714844 "/>
<path style=" stroke:none;fill-rule:nonzero;fill:rgb(100%,100%,100%);fill-opacity:1;" d="M 85.367188 138.503906 L 85.640625 157.335938 L 104.597656 157.335938 L 116.289062 144.683594 L 98.007812 126.261719 Z M 85.367188 138.503906 "/>
<path style=" stroke:none;fill-rule:evenodd;fill:rgb(100%,100%,100%);fill-opacity:1;" d="M 1050.582031 154.34375 C 1018.035156 154.503906 991.210938 128.371094 991.1875 96.539062 C 991.164062 65.472656 1017.820312 39.335938 1049.734375 39.125 C 1082.140625 38.921875 1108.753906 64.648438 1108.910156 96.339844 C 1109.058594 128.207031 1082.933594 154.214844 1050.582031 154.34375 M 1020.03125 96.4375 C 1019.964844 113.300781 1033.3125 126.980469 1049.820312 126.980469 C 1066.75 126.980469 1080.152344 113.871094 1080.386719 97.074219 C 1080.605469 80.367188 1067.183594 66.699219 1050.480469 66.601562 C 1033.496094 66.527344 1020.074219 79.671875 1020.03125 96.4375 "/>
<path style=" stroke:none;fill-rule:evenodd;fill:rgb(100%,100%,100%);fill-opacity:1;" d="M 335.796875 70.800781 C 327.199219 74.679688 319 78.382812 310.566406 82.199219 C 302.785156 70.453125 292.257812 65.109375 278.269531 67.199219 C 262.363281 69.546875 251.835938 84.4375 253.992188 101.734375 C 255.851562 116.566406 270.808594 128.359375 285.746094 126.859375 C 304.597656 125.859375 310.703125 112.390625 310.703125 112.390625 C 310.703125 112.390625 328.816406 119.339844 335.695312 122.386719 C 326.15625 144.402344 298.457031 158.109375 273.542969 153.585938 C 246.472656 148.640625 225.433594 125.113281 224.597656 98.882812 C 223.777344 72.609375 242.378906 47.980469 268.15625 41.1875 C 295.058594 34.148438 323.183594 46.191406 335.796875 70.800781 "/>
<path style=" stroke:none;fill-rule:evenodd;fill:rgb(100%,100%,100%);fill-opacity:1;" d="M 973.019531 70.800781 C 964.410156 74.679688 956.222656 78.382812 947.777344 82.199219 C 940.007812 70.453125 929.480469 65.109375 915.480469 67.199219 C 899.585938 69.546875 889.058594 84.4375 891.214844 101.734375 C 893.078125 116.566406 908.03125 128.359375 922.96875 126.859375 C 941.832031 125.859375 947.921875 112.390625 947.921875 112.390625 C 947.921875 112.390625 966.035156 119.339844 972.910156 122.386719 C 963.375 144.402344 935.671875 158.109375 910.761719 153.585938 C 883.699219 148.640625 862.660156 125.121094 861.824219 98.882812 C 861.003906 72.609375 879.605469 47.980469 905.390625 41.1875 C 932.285156 34.148438 960.40625 46.191406 973.019531 70.800781 "/>
<path style=" stroke:none;fill-rule:evenodd;fill:rgb(100%,100%,100%);fill-opacity:1;" d="M 1135.300781 41.535156 L 1163.113281 41.535156 L 1163.113281 124.402344 L 1215.535156 124.402344 L 1215.535156 151.746094 L 1135.300781 151.746094 Z M 1135.300781 41.535156 "/>
<path style=" stroke:none;fill-rule:nonzero;fill:rgb(100%,100%,100%);fill-opacity:1;" d="M 519.988281 123.226562 C 524.292969 123.226562 533.601562 123.246094 533.601562 123.246094 L 553.695312 151.433594 L 588.648438 151.433594 C 580.847656 140.414062 572.878906 129.179688 565.546875 118.855469 C 576.210938 113.132812 583.101562 104.691406 585.800781 93.304688 C 591.433594 69.488281 580.601562 44.757812 554.308594 42.253906 C 538.96875 40.765625 491.609375 41.242188 491.609375 41.242188 C 491.609375 41.242188 491.464844 122.488281 491.644531 151.433594 L 519.984375 151.433594 L 519.984375 123.226562 Z M 520.292969 67.496094 C 529.808594 67.496094 539.058594 66.960938 548.230469 67.628906 C 555.71875 68.167969 559.828125 73.945312 559.875 81.878906 C 559.898438 89.511719 555.460938 95.789062 548.273438 96.324219 C 539.109375 97.003906 529.867188 96.484375 520.292969 96.484375 Z M 520.292969 67.496094 "/>
<path style=" stroke:none;fill-rule:nonzero;fill:rgb(100%,100%,100%);fill-opacity:1;" d="M 836.539062 68.703125 L 836.539062 41.105469 L 751.589844 41.105469 L 751.589844 152.273438 L 836.539062 152.273438 L 836.539062 124.679688 L 780.546875 124.679688 L 780.546875 110.5625 L 826.164062 110.5625 L 826.164062 84.511719 L 780.546875 84.511719 L 780.546875 68.703125 Z M 836.539062 68.703125 "/>
<path style=" stroke:none;fill-rule:evenodd;fill:rgb(100%,100%,100%);fill-opacity:1;" d="M 469.113281 97.257812 C 468.757812 129.199219 442.246094 154.757812 409.898438 154.34375 C 377.363281 153.90625 350.882812 127.351562 351.339844 95.578125 C 351.777344 64.523438 379.230469 38.816406 411.59375 39.121094 C 443.472656 39.433594 469.445312 65.683594 469.113281 97.257812 M 380.414062 96.4375 C 380.304688 113.285156 393.128906 126.6875 409.636719 126.980469 C 426.800781 127.316406 440.542969 113.894531 440.601562 96.765625 C 440.632812 80.113281 427.617188 66.882812 410.921875 66.632812 C 393.898438 66.363281 380.488281 79.460938 380.414062 96.4375 "/>
<path style=" stroke:none;fill-rule:nonzero;fill:rgb(100%,100%,100%);fill-opacity:1;" d="M 648.703125 123.226562 C 653.007812 123.226562 662.324219 123.246094 662.324219 123.246094 L 682.433594 151.433594 L 717.398438 151.433594 C 709.558594 140.414062 701.589844 129.179688 694.25 118.855469 C 704.925781 113.132812 711.835938 104.691406 714.503906 93.304688 C 720.15625 69.488281 709.339844 44.757812 683.035156 42.253906 C 667.707031 40.765625 620.324219 41.242188 620.324219 41.242188 C 620.324219 41.242188 620.183594 122.488281 620.359375 151.433594 L 648.703125 151.433594 Z M 649.023438 67.496094 C 658.546875 67.496094 667.792969 66.960938 676.941406 67.628906 C 684.453125 68.167969 688.574219 73.945312 688.59375 81.878906 C 688.617188 89.511719 684.210938 95.789062 677.007812 96.324219 C 667.832031 97.003906 658.585938 96.484375 649.027344 96.484375 L 649.027344 67.496094 Z M 649.023438 67.496094 "/>
</g>
</svg>
